<svg width="531" height="530" viewBox="0 0 531 530" fill="none" xmlns="http://www.w3.org/2000/svg">
	<style>
		path {
			fill: black;
		}

		@media (prefers-color-scheme: dark) {
			path {
				fill: white;
			}
		}
	</style>
	<rect width="530" height="530" transform="translate(1)" />
	<path
		d="M252.266 263.651C252.266 189.854 211.979 133 109.566 133H0V394.302H109.566C211.979 394.302 252.266 337.448 252.266 263.651ZM177.716 263.651C177.716 315.234 148.724 334.436 108.437 334.436H71.1616V192.866H108.437C148.724 192.866 177.716 212.068 177.716 263.651Z" />
	<path
		d="M276.134 270.138C276.134 340.357 332.908 397.202 403.041 397.202C473.174 397.202 530.505 340.357 530.505 270.138C530.505 199.918 473.174 142.517 403.041 142.517C332.908 142.517 276.134 199.918 276.134 270.138ZM300.625 270.138C300.625 212.179 346.267 164.809 403.041 164.809C459.815 164.809 506.014 212.179 506.014 270.138C506.014 328.097 459.815 374.91 403.041 374.91C346.267 374.91 300.625 328.097 300.625 270.138ZM343.484 333.113H383.559V289.643H406.38L430.315 333.113H473.73L444.787 281.841C458.145 276.268 468.164 261.221 468.164 244.502C468.164 214.965 449.239 201.033 416.956 201.033H343.484V333.113ZM427.532 245.06C427.532 255.648 420.852 260.107 408.05 260.107H383.559V232.242H408.05C420.852 232.242 427.532 235.585 427.532 245.06Z" />
</svg>
